<svg xmlns="http://www.w3.org/2000/svg" xmlns:xlink="http://www.w3.org/1999/xlink" viewBox="0 0 81.03 21.97"><defs><style>.cls-1{fill:none;}.cls-2{clip-path:url(#clip-path);}.cls-3{fill:#1b8e21;}</style><clipPath id="clip-path" transform="translate(-0.12 0.64)"><rect class="cls-1" width="80" height="20"/></clipPath></defs><title>Fichier 1</title><g id="Calque_2" data-name="Calque 2"><g id="Calque_1-2" data-name="Calque 1"><g class="cls-2"><path class="cls-3" d="M80,.29V0h-.29A2.65,2.65,0,0,1,80,.29Z" transform="translate(-0.12 0.64)"/><path class="cls-3" d="M38.93,12.38v0h0Z" transform="translate(-0.12 0.64)"/><path class="cls-3" d="M77.66,17.73c1.08-1.21-1.21-1.94-2.07-2.22a18.34,18.34,0,0,0-5.06-.64c-2.91-.13-5.94-1.42-6.18-4.7a1.51,1.51,0,0,1,1.11-1.44L74,6.83A17.33,17.33,0,0,0,77.87,6c.12-.06.17-.06.19,0l0-.1c.11-.2,0-.74-.07-1C78,4.22,77.91,3.58,77.84,3c-.09-.86.1-.55-.65-.46s-1.43.2-2.15.31q-2,.33-4,.75c-2.7.57-5.37,1.3-8,2.14-1.2.39-2-.79-1.84-1.84S59.85,2.21,59,2.43a3.88,3.88,0,0,0-2.3,2.24,1.47,1.47,0,0,1-1.29.74c-2.68,0-5.36,0-8-.07a2.35,2.35,0,0,1,0,.26,1.56,1.56,0,0,1-.69.9,1.62,1.62,0,0,1-1.16.15,25.58,25.58,0,0,1-3.88-1.47l0,0-1.9-.06L38.3,5a1.63,1.63,0,0,1,.32.92,1.5,1.5,0,0,1-1.5,1.5,1.06,1.06,0,0,1-.58-.13A1,1,0,0,1,36.06,7a7.63,7.63,0,0,1-1.18-1.09A5.17,5.17,0,0,1,34.25,5l-.08-.2c-1.57-.09-3.13-.2-4.7-.32a1.73,1.73,0,0,1,0,.68,1.52,1.52,0,0,1-.69.9,1.12,1.12,0,0,1-.56.18,1.18,1.18,0,0,1-.59,0,8.4,8.4,0,0,1-1.06-.48,7.1,7.1,0,0,1-.91-.64,5.87,5.87,0,0,1-.95-1c-1.79-.18-3.58-.39-5.37-.58a1.5,1.5,0,0,1-.17,1,1.05,1.05,0,0,1-.39.42,1.14,1.14,0,0,1-.51.27,1.18,1.18,0,0,1-.59,0,1.12,1.12,0,0,1-.56-.18l-2-1.41a1.55,1.55,0,0,1-.51-.51l-1.34,0c-.55,0-1.11,0-1.66.07l.08.2a1.51,1.51,0,0,1,0,.79l-.15.36a1,1,0,0,1-.39.42,1,1,0,0,1-.51.27,1.19,1.19,0,0,1-.59,0,1.12,1.12,0,0,1-.56-.18A15.91,15.91,0,0,1,8.1,4.2a.7.7,0,0,1-.17-.13,7.58,7.58,0,0,0-4,3.6A7.5,7.5,0,0,0,5.6,16.56a1.51,1.51,0,0,1,.76.21,6.2,6.2,0,0,0,3.28.51h6.75a29.22,29.22,0,0,1-3.64-1.48c-2-1-4.18-2-4.35-4.4-.14-1.93,2.86-1.92,3,0,0,.62,1.56,1.15,2,1.39a30.77,30.77,0,0,0,3,1.38,32.15,32.15,0,0,0,6.41,1.52c1.61.25,3.23.48,4.84.7a1.41,1.41,0,0,1,.62-1.76L29.51,14c.19-.11.37-.23.56-.33l.08,0a2.51,2.51,0,0,1-.16-.46,3,3,0,0,0-.31-.55,4.48,4.48,0,0,0-2.91-1.62c-3.18-.52-6.37.92-9.56.85-1.93,0-1.93-3,0-3,4.14.09,8.22-2,12.24-.13a6.36,6.36,0,0,1,3.49,3.85,3.14,3.14,0,0,1-.47,3,6.66,6.66,0,0,1-1.79,1.27c1.87.22,3.74.42,5.62.55l.16,0a1.44,1.44,0,0,1,.92-.33c.21,0,.42,0,.64,0a5.16,5.16,0,0,1-1.79-2.76,4.39,4.39,0,0,1,.16-3.5A1.5,1.5,0,1,1,39,12.28l0,0,0,.14v.24h0l0,.16a1.6,1.6,0,0,0,0,.21,5.18,5.18,0,0,0,.17.56,2.25,2.25,0,0,0,.08.24.88.88,0,0,1,.05.15c0,.1,0,.06-.05-.13,0,.11.18.36.23.45l.09.13h0l.08.08h0l0,0,.17.1h0l.3.09.55.13.17,0h.17c.21,0,.42,0,.63,0a3.24,3.24,0,0,0,.43,0h0l.12,0,.28-.06a6.4,6.4,0,0,0,1.2-.37,1.41,1.41,0,0,1,1.31.26,1.49,1.49,0,0,1,.59,1.18,2.85,2.85,0,0,1-.1.84l7.94-.09a2,2,0,0,1-.09-1,9.78,9.78,0,0,0,.17-2.7,3.73,3.73,0,0,0-.3-1.18,2,2,0,0,0-.26-.45s.12,0,0,0a7.32,7.32,0,0,0-1.69,0H49.53l-3.47.06c-1.93.05-1.92-2.95,0-3q2.37-.07,4.74-.06c1.38,0,3.06-.22,4.17.77a5.62,5.62,0,0,1,1.6,4.25,1.51,1.51,0,0,1,1.68-.23,63.71,63.71,0,0,0,10,3.73q2.44.67,4.95,1.17C74.47,18.23,76.65,18.87,77.66,17.73Z" transform="translate(-0.12 0.64)"/><path class="cls-3" d="M39.7,14.55h0C39.8,14.66,39.75,14.6,39.7,14.55Z" transform="translate(-0.12 0.64)"/><path class="cls-3" d="M39.64,14.52l0,0h0Z" transform="translate(-0.12 0.64)"/><path class="cls-3" d="M79.61,20H80v-.41A5,5,0,0,1,79.61,20Z" transform="translate(-0.12 0.64)"/><path class="cls-3" d="M39,12.82l0-.12A.25.25,0,0,0,39,12.82Z" transform="translate(-0.12 0.64)"/><path d="M80.87,16.19A3.49,3.49,0,0,0,80,14.63a6.86,6.86,0,0,0-2.41-1.56,15.53,15.53,0,0,0-5.42-1.16c-1,0-3.16.13-4.22-.66l9.51-2.1A6.53,6.53,0,0,0,80,8.2,2.65,2.65,0,0,0,80.9,7c.54-1.43,0-3.39-.14-4.85A3.65,3.65,0,0,0,80,.29,2.65,2.65,0,0,0,79.71,0a2.42,2.42,0,0,0-1.37-.55A16.92,16.92,0,0,0,73.68,0l-.37.07a80.78,80.78,0,0,0-9.46,2.25A4.54,4.54,0,0,0,61.92,0a4.82,4.82,0,0,0-1.86-.62,5.06,5.06,0,0,0-3,.62,7.12,7.12,0,0,0-2.54,2.4Q39.16,2.4,23.8,1C15.93.31,4.44-2.09.78,7.39a10.58,10.58,0,0,0,4,12.33A1.21,1.21,0,0,0,6,19.88c.14.05.29.08.44.12a22.53,22.53,0,0,0,5.38.29H20l16.29,0a1.43,1.43,0,0,0,1-.32l.13,0c1.79.05,3.58.06,5.36,0A1.11,1.11,0,0,0,43,20a1.71,1.71,0,0,0,.68-.29,1.79,1.79,0,0,0,.42.05l16.24-.19a1.49,1.49,0,0,0,1.43-1.76A63.48,63.48,0,0,0,68.36,20l.19.05a54,54,0,0,0,5.62,1.19,6.61,6.61,0,0,0,5-.86,4,4,0,0,0,.39-.33,5,5,0,0,0,.39-.41A3.82,3.82,0,0,0,80.87,16.19ZM38.93,12.7l0,.12A.25.25,0,0,1,38.93,12.7Zm29.33,4.12a63.71,63.71,0,0,1-10-3.73,1.51,1.51,0,0,0-1.68.23A5.62,5.62,0,0,0,55,9.07c-1.11-1-2.79-.76-4.17-.77q-2.37,0-4.74.06c-1.92.05-1.93,3.05,0,3l3.47-.06h1.74a7.32,7.32,0,0,1,1.69,0c.17.05.08.05,0,0a2,2,0,0,1,.26.45,3.73,3.73,0,0,1,.3,1.18,9.78,9.78,0,0,1-.17,2.7,2,2,0,0,0,.09,1l-7.94.09a2.85,2.85,0,0,0,.1-.84,1.49,1.49,0,0,0-.59-1.18,1.41,1.41,0,0,0-1.31-.26,6.4,6.4,0,0,1-1.2.37l-.28.06-.12,0h0a3.24,3.24,0,0,1-.43,0c-.21,0-.42,0-.63,0h-.17l-.17,0-.55-.13-.3-.09h0l-.17-.1s.1.11,0,0l0,0h0l-.08-.08h0l-.09-.13c-.05-.09-.24-.34-.23-.45.08.19.1.23.05.13a.88.88,0,0,0-.05-.15,2.25,2.25,0,0,1-.08-.24,5.18,5.18,0,0,1-.17-.56,1.6,1.6,0,0,1,0-.21l0-.16h0v-.24l0-.14,0,0a1.5,1.5,0,1,0-2.59-1.52,4.39,4.39,0,0,0-.16,3.5A5.16,5.16,0,0,0,38,17c-.22,0-.43,0-.64,0a1.44,1.44,0,0,0-.92.33l-.16,0c-1.88-.13-3.75-.33-5.62-.55a6.66,6.66,0,0,0,1.79-1.27,3.14,3.14,0,0,0,.47-3,6.36,6.36,0,0,0-3.49-3.85c-4-1.83-8.1.22-12.24.13-1.93,0-1.93,3,0,3,3.19.07,6.38-1.37,9.56-.85a4.48,4.48,0,0,1,2.91,1.62,3,3,0,0,1,.31.55,2.51,2.51,0,0,0,.16.46l-.08,0c-.19.1-.37.22-.56.33l-1.17.69a1.41,1.41,0,0,0-.62,1.76c-1.61-.22-3.23-.45-4.84-.7a32.15,32.15,0,0,1-6.41-1.52,30.77,30.77,0,0,1-3-1.38c-.47-.24-2-.77-2-1.39-.14-1.92-3.14-1.93-3,0,.17,2.45,2.38,3.44,4.35,4.4a29.22,29.22,0,0,0,3.64,1.48H9.64a6.2,6.2,0,0,1-3.28-.51,1.51,1.51,0,0,0-.76-.21A7.5,7.5,0,0,1,3.92,7.67a7.58,7.58,0,0,1,4-3.6.7.7,0,0,0,.17.13,15.91,15.91,0,0,0,1.39.92,1.12,1.12,0,0,0,.56.18,1.19,1.19,0,0,0,.59,0A1,1,0,0,0,11.15,5a1,1,0,0,0,.39-.42l.15-.36a1.51,1.51,0,0,0,0-.79l-.08-.2c.55,0,1.11-.07,1.66-.07l1.34,0a1.55,1.55,0,0,0,.51.51l2,1.41a1.12,1.12,0,0,0,.56.18,1.18,1.18,0,0,0,.59,0A1.14,1.14,0,0,0,18.76,5a1.05,1.05,0,0,0,.39-.42,1.5,1.5,0,0,0,.17-1c1.79.19,3.58.4,5.37.58a5.87,5.87,0,0,0,.95,1,7.1,7.1,0,0,0,.91.64,8.4,8.4,0,0,0,1.06.48,1.18,1.18,0,0,0,.59,0,1.12,1.12,0,0,0,.56-.18,1.52,1.52,0,0,0,.69-.9,1.73,1.73,0,0,0,0-.68c1.57.12,3.13.23,4.7.32l.08.2a5.17,5.17,0,0,0,.63.92A7.63,7.63,0,0,0,36.06,7a1,1,0,0,0,.48.31,1.06,1.06,0,0,0,.58.13,1.5,1.5,0,0,0,1.5-1.5A1.63,1.63,0,0,0,38.3,5l1.42.07,1.9.06,0,0a25.58,25.58,0,0,0,3.88,1.47A1.62,1.62,0,0,0,46.7,6.5a1.56,1.56,0,0,0,.69-.9,2.35,2.35,0,0,0,0-.26c2.68,0,5.36.08,8,.07a1.47,1.47,0,0,0,1.29-.74A3.88,3.88,0,0,1,59,2.43c.82-.22,2.36.31,2.2,1.42s.64,2.23,1.84,1.84c2.64-.84,5.31-1.57,8-2.14q2-.42,4-.75c.72-.11,1.43-.22,2.15-.31s.56-.4.65.46c.07.63.13,1.27.19,1.91,0,.23.18.77.07,1l0,.1s-.07,0-.19,0A17.33,17.33,0,0,1,74,6.83l-8.58,1.9a1.51,1.51,0,0,0-1.11,1.44c.24,3.28,3.27,4.57,6.18,4.7a18.34,18.34,0,0,1,5.06.64c.86.28,3.15,1,2.07,2.22s-3.19.5-4.45.26Q70.71,17.5,68.26,16.82ZM38.93,12.38v0h0Z" transform="translate(-0.12 0.64)"/><path d="M39.68,14.54h0l0,0Z" transform="translate(-0.12 0.64)"/></g><path d="M59.15,7.48a1.5,1.5,0,0,0,0-3,1.5,1.5,0,0,0,0,3Z" transform="translate(-0.12 0.64)"/></g></g></svg>